<svg width="32" height="32" viewBox="0 0 32 32" fill="none" xmlns="http://www.w3.org/2000/svg">
  <rect width="32" height="32" rx="8" fill="#4F46E5"/>
  <path d="M10 10V22H14C17.3137 22 20 19.3137 20 16C20 12.6863 17.3137 10 14 10H10Z" fill="white"/>
  <path d="M12 12H14C16.2091 12 18 13.7909 18 16C18 18.2091 16.2091 20 14 20H12V12Z" fill="#4F46E5"/>
  <path d="M22 17C22 18.6569 20.6569 20 19 20H17V17H19C19.5523 17 20 17.4477 20 18C20 18.5523 19.5523 19 19 19H18V18H19C19.5523 18 20 17.5523 20 17C20 16.4477 19.5523 16 19 16H17V15H19C20.6569 15 22 16.3431 22 17Z" fill="white"/>
  <circle cx="21" cy="11" r="3" fill="white"/>
</svg>
